<mxfile>
    <diagram id="n8FLyneHTdMvInL7v84p" name="Page-1">
        <mxGraphModel dx="734" dy="575" grid="1" gridSize="10" guides="1" tooltips="1" connect="1" arrows="1" fold="1" page="1" pageScale="1" pageWidth="850" pageHeight="1100" math="0" shadow="0">
            <root>
                <mxCell id="0"/>
                <mxCell id="1" parent="0"/>
                <mxCell id="e-MJIrsGY2n5iCfqS06s-4" style="edgeStyle=orthogonalEdgeStyle;rounded=0;orthogonalLoop=1;jettySize=auto;html=1;" parent="1" source="e-MJIrsGY2n5iCfqS06s-1" target="e-MJIrsGY2n5iCfqS06s-3" edge="1">
                    <mxGeometry relative="1" as="geometry"/>
                </mxCell>
                <mxCell id="e-MJIrsGY2n5iCfqS06s-1" value="&lt;u&gt;Users&lt;/u&gt;&lt;br&gt;- UUID&lt;br&gt;- username&lt;br&gt;- email&lt;br&gt;- password" style="rounded=1;whiteSpace=wrap;html=1;" parent="1" vertex="1">
                    <mxGeometry x="150" y="130" width="150" height="180" as="geometry"/>
                </mxCell>
                <mxCell id="e-MJIrsGY2n5iCfqS06s-3" value="&lt;u&gt;Classes&lt;/u&gt;&lt;br&gt;- owner&lt;br&gt;- semester&lt;br&gt;- meeting date/times&lt;br&gt;- title&lt;br&gt;-&amp;nbsp; content" style="rounded=1;whiteSpace=wrap;html=1;" parent="1" vertex="1">
                    <mxGeometry x="440" y="130" width="170" height="180" as="geometry"/>
                </mxCell>
            </root>
        </mxGraphModel>
    </diagram>
</mxfile>